<?xml version="1.0" encoding="utf-8"?>
<!-- Generator: Adobe Illustrator 13.0.0, SVG Export Plug-In . SVG Version: 6.00 Build 14948)  -->
<!DOCTYPE svg PUBLIC "-//W3C//DTD SVG 1.1//EN" "http://www.w3.org/Graphics/SVG/1.1/DTD/svg11.dtd">
<svg version="1.1" id="Ebene_1" xmlns="http://www.w3.org/2000/svg" xmlns:xlink="http://www.w3.org/1999/xlink" x="0px" y="0px"
	 width="28.348px" height="28.348px" viewBox="0 0 28.348 28.348" enable-background="new 0 0 28.348 28.348" xml:space="preserve">
<rect x="0" y="0" fill="none" width="28.348" height="28.348"/>
<g>
	<g>
		<path fill-rule="evenodd" clip-rule="evenodd" fill="#FFFFFF" d="M17.082,15.478c0.441-0.723,0.693-1.571,0.693-2.48
			c0-2.639-2.287-4.925-4.926-4.925c-2.639,0-4.777,2.139-4.777,4.778c0,2.639,2.285,4.926,4.924,4.926
			c0.879,0,1.702-0.238,2.407-0.65l2.936,2.935c0.287,0.287,0.752,0.287,1.039,0l0.729-0.729c0.287-0.287,0.184-0.648-0.104-0.936
			L17.082,15.478z M12.988,15.901c-1.607,0-3.041-1.434-3.041-3.041c0-1.608,1.303-2.912,2.912-2.912
			c1.607,0,3.042,1.434,3.042,3.041C15.901,14.597,14.595,15.901,12.988,15.901z M6.575,17.287l-1.521-1.878v4.866h4.867
			l-1.879-1.521L6.575,17.287z M18.428,8.073l1.857,1.503l1.469,1.465l1.539,1.898V8.073H18.428z"/>
	</g>
</g>
</svg>
