<?xml version="1.0" encoding="utf-8"?>
<!-- Generator: Adobe Illustrator 13.0.0, SVG Export Plug-In . SVG Version: 6.00 Build 14948)  -->
<!DOCTYPE svg PUBLIC "-//W3C//DTD SVG 1.1//EN" "http://www.w3.org/Graphics/SVG/1.1/DTD/svg11.dtd">
<svg version="1.1" id="Ebene_1" xmlns="http://www.w3.org/2000/svg" xmlns:xlink="http://www.w3.org/1999/xlink" x="0px" y="0px"
	 width="28.348px" height="28.348px" viewBox="0 0 28.348 28.348" enable-background="new 0 0 28.348 28.348" xml:space="preserve">
<rect x="0" y="0" fill="none" width="28.348" height="28.348"/>
<path fill-rule="evenodd" clip-rule="evenodd" fill="#FFFFFF" d="M15.121,7.841c-3.434,0-6.225,2.751-6.31,6.176H6.914l2.841,3.166
	l2.841-3.166H10.39c0.083-2.551,2.169-4.593,4.731-4.593c2.615,0,4.734,2.127,4.734,4.751c0,2.623-2.119,4.75-4.734,4.75
	c-1.049,0-2.018-0.342-2.802-0.922l-1.085,1.162c1.071,0.842,2.421,1.344,3.887,1.344c3.486,0,6.312-2.836,6.312-6.333
	C21.434,10.676,18.608,7.841,15.121,7.841"/>
</svg>
