<?xml version="1.0" encoding="utf-8"?>
<!-- Generator: Adobe Illustrator 13.0.0, SVG Export Plug-In . SVG Version: 6.00 Build 14948)  -->
<!DOCTYPE svg PUBLIC "-//W3C//DTD SVG 1.1//EN" "http://www.w3.org/Graphics/SVG/1.1/DTD/svg11.dtd">
<svg version="1.1" id="Ebene_1" xmlns="http://www.w3.org/2000/svg" xmlns:xlink="http://www.w3.org/1999/xlink" x="0px" y="0px"
	 width="28.348px" height="28.348px" viewBox="0 0 28.348 28.348" enable-background="new 0 0 28.348 28.348" xml:space="preserve">
<rect x="0" y="0" fill="none" width="28.348" height="28.348"/>
<g>
	<path fill-rule="evenodd" clip-rule="evenodd" fill="#FFFFFF" d="M8.203,7.088c-0.616,0-1.115,0.499-1.115,1.115
		s0.499,1.115,1.115,1.115s1.115-0.499,1.115-1.115S8.819,7.088,8.203,7.088z M20.145,9.318c0.617,0,1.115-0.499,1.115-1.115
		s-0.498-1.115-1.115-1.115c-0.615,0-1.115,0.499-1.115,1.115S19.53,9.318,20.145,9.318z M14.174,7.088
		c-0.615,0-1.115,0.499-1.115,1.115s0.5,1.115,1.115,1.115c0.618,0,1.116-0.499,1.116-1.115S14.791,7.088,14.174,7.088z
		 M11.188,7.088c-0.616,0-1.115,0.499-1.115,1.115s0.499,1.115,1.115,1.115s1.115-0.499,1.115-1.115S11.804,7.088,11.188,7.088z
		 M17.16,7.088c-0.617,0-1.115,0.499-1.115,1.115s0.498,1.115,1.115,1.115c0.615,0,1.115-0.499,1.115-1.115
		S17.776,7.088,17.16,7.088z M8.203,19.03c-0.616,0-1.115,0.5-1.115,1.115c0,0.617,0.499,1.115,1.115,1.115s1.115-0.498,1.115-1.115
		C9.318,19.53,8.819,19.03,8.203,19.03z M20.145,19.03c-0.615,0-1.115,0.5-1.115,1.115c0,0.617,0.5,1.115,1.115,1.115
		c0.617,0,1.115-0.498,1.115-1.115C21.26,19.53,20.762,19.03,20.145,19.03z M14.174,19.03c-0.615,0-1.115,0.5-1.115,1.115
		c0,0.617,0.5,1.115,1.115,1.115c0.618,0,1.116-0.498,1.116-1.115C15.289,19.53,14.791,19.03,14.174,19.03z M11.188,19.03
		c-0.616,0-1.115,0.5-1.115,1.115c0,0.617,0.499,1.115,1.115,1.115s1.115-0.498,1.115-1.115C12.303,19.53,11.804,19.03,11.188,19.03
		z M17.16,19.03c-0.617,0-1.115,0.5-1.115,1.115c0,0.617,0.498,1.115,1.115,1.115c0.615,0,1.115-0.498,1.115-1.115
		C18.276,19.53,17.776,19.03,17.16,19.03z M8.203,13.059c-0.616,0-1.115,0.498-1.115,1.115c0,0.615,0.499,1.115,1.115,1.115
		s1.115-0.5,1.115-1.115C9.318,13.557,8.819,13.059,8.203,13.059z M8.203,16.045c-0.616,0-1.115,0.498-1.115,1.115
		c0,0.615,0.499,1.115,1.115,1.115s1.115-0.5,1.115-1.115C9.318,16.543,8.819,16.045,8.203,16.045z M8.203,10.073
		c-0.616,0-1.115,0.499-1.115,1.115s0.499,1.115,1.115,1.115s1.115-0.499,1.115-1.115S8.819,10.073,8.203,10.073z M20.145,13.059
		c-0.615,0-1.115,0.498-1.115,1.115c0,0.615,0.5,1.115,1.115,1.115c0.617,0,1.115-0.5,1.115-1.115
		C21.26,13.557,20.762,13.059,20.145,13.059z M20.145,16.045c-0.615,0-1.115,0.498-1.115,1.115c0,0.615,0.5,1.115,1.115,1.115
		c0.617,0,1.115-0.5,1.115-1.115C21.26,16.543,20.762,16.045,20.145,16.045z M20.145,10.073c-0.615,0-1.115,0.499-1.115,1.115
		s0.5,1.115,1.115,1.115c0.617,0,1.115-0.499,1.115-1.115S20.762,10.073,20.145,10.073z"/>
</g>
</svg>
