<?xml version="1.0" encoding="utf-8"?>
<!-- Generator: Adobe Illustrator 13.0.0, SVG Export Plug-In . SVG Version: 6.00 Build 14948)  -->
<!DOCTYPE svg PUBLIC "-//W3C//DTD SVG 1.1//EN" "http://www.w3.org/Graphics/SVG/1.1/DTD/svg11.dtd">
<svg version="1.1" id="Ebene_1" xmlns="http://www.w3.org/2000/svg" xmlns:xlink="http://www.w3.org/1999/xlink" x="0px" y="0px"
	 width="28.348px" height="28.348px" viewBox="0 0 28.348 28.348" enable-background="new 0 0 28.348 28.348" xml:space="preserve">
<rect x="0" y="0" fill="none" width="28.348" height="28.348"/>
<path fill-rule="evenodd" clip-rule="evenodd" fill="#FFFFFF" d="M13.526,15.478c0.44-0.723,0.693-1.571,0.693-2.48
	c0-2.639-2.287-4.925-4.926-4.925s-4.778,2.139-4.778,4.778c0,2.639,2.286,4.926,4.925,4.926c0.878,0,1.7-0.238,2.406-0.65
	l2.935,2.935c0.288,0.287,0.753,0.287,1.04,0l0.729-0.729c0.287-0.287,0.183-0.648-0.104-0.936L13.526,15.478z M9.432,15.901
	c-1.607,0-3.041-1.434-3.041-3.041c0-1.608,1.303-2.912,2.911-2.912s3.042,1.434,3.042,3.041
	C12.344,14.597,11.039,15.901,9.432,15.901z M23.833,11.013h-2.951c-0.002-0.98-0.006-1.953-0.006-2.94H18.99
	c-0.002,1.307-0.002,2.245-0.002,2.94c-0.551,0-0.529,0-2.939,0v1.904c0.977-0.002,1.963-0.003,2.939-0.006
	c0,0.557,0.002,0.527,0.002,2.947h1.904c-0.004-0.98-0.004-1.97-0.008-2.951c0.984-0.002,1.959-0.006,2.947-0.006V11.013z"/>
</svg>
