<?xml version="1.0" encoding="utf-8"?>
<!-- Generator: Adobe Illustrator 13.0.0, SVG Export Plug-In . SVG Version: 6.00 Build 14948)  -->
<!DOCTYPE svg PUBLIC "-//W3C//DTD SVG 1.1//EN" "http://www.w3.org/Graphics/SVG/1.1/DTD/svg11.dtd">
<svg version="1.1" id="Ebene_1" xmlns="http://www.w3.org/2000/svg" xmlns:xlink="http://www.w3.org/1999/xlink" x="0px" y="0px"
	 width="28.348px" height="28.348px" viewBox="0 0 28.348 28.348" enable-background="new 0 0 28.348 28.348" xml:space="preserve">
<rect x="0" y="0" fill="none" width="28.348" height="28.348"/>
<path fill-rule="evenodd" clip-rule="evenodd" fill="#FFFFFF" d="M18.37,14.846v-1.391h-3.845l0.678,0.679l-0.711,0.712H18.37z
	 M20.053,7.223h-7.725c-0.85,0-1.545,0.694-1.545,1.545v0.946l1.545,1.545V8.768h7.725v10.813h-7.725V17.01l-1.545,1.545v1.026
	c0,0.85,0.695,1.544,1.545,1.544h7.725c0.849,0,1.544-0.694,1.544-1.544V8.768C21.597,7.917,20.902,7.223,20.053,7.223z
	 M14.028,11.795h4.325v-1.353h-4.325V11.795z M14.028,17.859h4.325v-1.353h-4.325V17.859z M13.197,14.124l-3.441-3.44l0.251,2.376
	l-3.255-0.055v2.185l3.258-0.055l-0.254,2.431L13.197,14.124z"/>
</svg>
