<?xml version="1.0" encoding="utf-8"?>
<!-- Generator: Adobe Illustrator 13.0.0, SVG Export Plug-In . SVG Version: 6.00 Build 14948)  -->
<!DOCTYPE svg PUBLIC "-//W3C//DTD SVG 1.1//EN" "http://www.w3.org/Graphics/SVG/1.1/DTD/svg11.dtd">
<svg version="1.1" id="Ebene_1" xmlns="http://www.w3.org/2000/svg" xmlns:xlink="http://www.w3.org/1999/xlink" x="0px" y="0px"
	 width="28.348px" height="28.348px" viewBox="0 0 28.348 28.348" enable-background="new 0 0 28.348 28.348" xml:space="preserve">
<rect x="0" y="0" fill="none" width="28.348" height="28.348"/>
<path fill-rule="evenodd" clip-rule="evenodd" fill="#FFFFFF" d="M13.525,15.478c0.441-0.723,0.693-1.571,0.693-2.48
	c0-2.639-2.287-4.925-4.926-4.925s-4.777,2.139-4.777,4.778c0,2.639,2.285,4.926,4.924,4.926c0.879,0,1.701-0.238,2.406-0.65
	l2.936,2.935c0.287,0.287,0.752,0.287,1.039,0l0.729-0.729c0.287-0.287,0.184-0.648-0.104-0.936L13.525,15.478z M9.431,15.901
	c-1.607,0-3.041-1.434-3.041-3.041c0-1.608,1.303-2.912,2.912-2.912c1.607,0,3.041,1.434,3.041,3.041
	C12.343,14.597,11.038,15.901,9.431,15.901z M16.048,11.013v1.904c0.977-0.002,6.797-0.016,7.785-0.016v-1.889
	C23.833,11.013,18.458,11.013,16.048,11.013z"/>
</svg>
