<?xml version="1.0" encoding="utf-8"?>
<!-- Generator: Adobe Illustrator 13.0.0, SVG Export Plug-In . SVG Version: 6.00 Build 14948)  -->
<!DOCTYPE svg PUBLIC "-//W3C//DTD SVG 1.1//EN" "http://www.w3.org/Graphics/SVG/1.1/DTD/svg11.dtd">
<svg version="1.1" id="Ebene_1" xmlns="http://www.w3.org/2000/svg" xmlns:xlink="http://www.w3.org/1999/xlink" x="0px" y="0px"
	 width="28.348px" height="28.348px" viewBox="0 0 28.348 28.348" enable-background="new 0 0 28.348 28.348" xml:space="preserve">
<rect x="0" y="0" fill="none" width="28.348" height="28.348"/>
<path fill-rule="evenodd" clip-rule="evenodd" fill="#FFFFFF" d="M21.332,12.023l-3.746-2.162l-0.676,1.172l3.746,2.162
	 M24.414,10.084l-6.689-3.861c-0.736-0.424-1.686-0.17-2.111,0.566l-1.065,1.842l0.893,1.545l1.51-2.615l6.689,3.861l-5.406,9.366
	l-1.68-0.969l-1.545,0.893l2.451,1.414c0.736,0.426,1.686,0.17,2.111-0.564l5.406-9.366C25.405,11.459,25.149,10.51,24.414,10.084z
	 M18.5,15.473l0.645,0.373l0.695-1.204l-2.73-1.578L18.5,15.473z M9.234,15.828l3.746-2.163l-0.695-1.205l-3.746,2.164L9.234,15.828
	z M10.763,9.861l-3.746,2.164l0.676,1.17l3.746-2.162L10.763,9.861z M13.795,15.114l-3.747,2.162l0.677,1.17l3.746-2.162
	L13.795,15.114z M16.805,16.926l-6.69,3.861l-5.407-9.366l6.689-3.861L16.805,16.926z M10.624,6.222l-6.689,3.861
	c-0.735,0.426-0.99,1.375-0.565,2.111l5.407,9.366c0.425,0.734,1.374,0.99,2.11,0.564l6.689-3.861
	c0.736-0.426,0.99-1.375,0.564-2.111l-5.406-9.364C12.31,6.052,11.36,5.799,10.624,6.222z"/>
</svg>
