<?xml version="1.0" encoding="utf-8"?>
<!-- Generator: Adobe Illustrator 13.0.0, SVG Export Plug-In . SVG Version: 6.00 Build 14948)  -->
<!DOCTYPE svg PUBLIC "-//W3C//DTD SVG 1.1//EN" "http://www.w3.org/Graphics/SVG/1.1/DTD/svg11.dtd">
<svg version="1.1" id="Ebene_1" xmlns="http://www.w3.org/2000/svg" xmlns:xlink="http://www.w3.org/1999/xlink" x="0px" y="0px"
	 width="28.348px" height="28.348px" viewBox="0 0 28.348 28.348" enable-background="new 0 0 28.348 28.348" xml:space="preserve">
<rect x="0" y="0" fill="none" width="28.348" height="28.348"/>
<g>
	<g>
		<path fill="#FFFFFF" d="M20.843,13.877l-6.375-6.375c-0.255-0.255-0.609-0.414-1.003-0.414H8.504
			c-0.781,0-1.417,0.634-1.417,1.417v4.961c0,0.394,0.16,0.748,0.418,1.002l6.378,6.378c0.256,0.256,0.609,0.414,1,0.414
			c0.393,0,0.747-0.158,1.003-0.414l4.96-4.961c0.255-0.258,0.415-0.613,0.415-1.002C21.261,14.49,21.102,14.135,20.843,13.877z
			 M9.568,10.63c-0.587,0-1.062-0.474-1.062-1.063c0-0.587,0.474-1.062,1.062-1.062s1.062,0.474,1.063,1.062
			C10.63,10.156,10.155,10.63,9.568,10.63z M16.52,16.52l-0.568,2.25l-1.241-1.963l-2.318,0.15l1.487-1.785l-0.862-2.159l2.158,0.86
			l1.786-1.484l-0.152,2.319l1.964,1.24L16.52,16.52z"/>
	</g>
</g>
</svg>
