<?xml version="1.0" encoding="utf-8"?>
<!-- Generator: Adobe Illustrator 13.0.0, SVG Export Plug-In . SVG Version: 6.00 Build 14948)  -->
<!DOCTYPE svg PUBLIC "-//W3C//DTD SVG 1.1//EN" "http://www.w3.org/Graphics/SVG/1.1/DTD/svg11.dtd">
<svg version="1.1" id="Ebene_1" xmlns="http://www.w3.org/2000/svg" xmlns:xlink="http://www.w3.org/1999/xlink" x="0px" y="0px"
	 width="28.348px" height="28.348px" viewBox="0 0 28.348 28.348" enable-background="new 0 0 28.348 28.348" xml:space="preserve">
<rect x="0" y="0" fill="none" width="28.348" height="28.348"/>
<path fill="#FFFFFF" d="M8.785,15.585c0.4-0.41,4.613-4.424,4.613-4.424c0.213-0.22,0.492-0.328,0.773-0.328
	c0.28,0,0.562,0.108,0.775,0.328c0,0,4.213,4.014,4.615,4.424c0.397,0.411,0.426,1.149,0,1.588c-0.428,0.438-1.023,0.474-1.549,0
	l-3.842-3.683l-3.839,3.683c-0.524,0.474-1.12,0.438-1.549,0C8.359,16.735,8.386,15.996,8.785,15.585"/>
</svg>
