<?xml version="1.0" encoding="utf-8"?>
<!-- Generator: Adobe Illustrator 13.0.0, SVG Export Plug-In . SVG Version: 6.00 Build 14948)  -->
<!DOCTYPE svg PUBLIC "-//W3C//DTD SVG 1.1//EN" "http://www.w3.org/Graphics/SVG/1.1/DTD/svg11.dtd">
<svg version="1.1" id="Ebene_1" xmlns="http://www.w3.org/2000/svg" xmlns:xlink="http://www.w3.org/1999/xlink" x="0px" y="0px"
	 width="28.348px" height="28.348px" viewBox="0 0 28.348 28.348" enable-background="new 0 0 28.348 28.348" xml:space="preserve">
<rect x="0" y="0" fill="none" width="28.348" height="28.348"/>
<path fill-rule="evenodd" clip-rule="evenodd" fill="#FFFFFF" d="M18.184,17.264l-1.975-1.975l-1.974,1.975l-1.115-1.115
	l1.974-1.974L13.12,12.2l1.115-1.115l1.974,1.975l1.975-1.975l1.114,1.115l-1.974,1.974l1.975,1.975 M20.353,8.767h-7.378
	c-0.34,0-0.827,0.184-1.083,0.407l-5.249,4.593c-0.256,0.224-0.256,0.59,0,0.813l5.249,4.593c0.256,0.225,0.743,0.406,1.083,0.406
	h7.378c0.85,0,1.545-0.695,1.545-1.545v-7.723C21.898,9.463,21.202,8.767,20.353,8.767z"/>
</svg>
