<?xml version="1.0" encoding="utf-8"?>
<!-- Generator: Adobe Illustrator 13.0.0, SVG Export Plug-In . SVG Version: 6.00 Build 14948)  -->
<!DOCTYPE svg PUBLIC "-//W3C//DTD SVG 1.1//EN" "http://www.w3.org/Graphics/SVG/1.1/DTD/svg11.dtd">
<svg version="1.1" id="Ebene_1" xmlns="http://www.w3.org/2000/svg" xmlns:xlink="http://www.w3.org/1999/xlink" x="0px" y="0px"
	 width="28.348px" height="28.348px" viewBox="0 0 28.348 28.348" enable-background="new 0 0 28.348 28.348" xml:space="preserve">
<rect x="0" y="0" fill="none" width="28.348" height="28.348"/>
<path fill-rule="evenodd" clip-rule="evenodd" fill="#FFFFFF" d="M13.228,7.841c3.434,0,6.225,2.75,6.309,6.175h1.898l-2.841,3.167
	l-2.841-3.167h2.205c-0.084-2.55-2.169-4.592-4.73-4.592c-2.615,0-4.735,2.127-4.735,4.75c0,2.624,2.12,4.75,4.735,4.75
	c1.048,0,2.017-0.342,2.801-0.922l1.086,1.162c-1.071,0.842-2.421,1.344-3.887,1.344c-3.487,0-6.314-2.836-6.314-6.334
	C6.913,10.676,9.74,7.841,13.228,7.841"/>
</svg>
