<?xml version="1.0" encoding="utf-8"?>
<!-- Generator: Adobe Illustrator 13.0.0, SVG Export Plug-In . SVG Version: 6.00 Build 14948)  -->
<!DOCTYPE svg PUBLIC "-//W3C//DTD SVG 1.1//EN" "http://www.w3.org/Graphics/SVG/1.1/DTD/svg11.dtd">
<svg version="1.1" id="Ebene_1" xmlns="http://www.w3.org/2000/svg" xmlns:xlink="http://www.w3.org/1999/xlink" x="0px" y="0px"
	 width="28.348px" height="28.348px" viewBox="0 0 28.348 28.348" enable-background="new 0 0 28.348 28.348" xml:space="preserve">
<rect x="0" y="0" fill="none" width="28.348" height="28.348"/>
<g>
	<path fill-rule="evenodd" clip-rule="evenodd" fill="#FFFFFF" d="M16.253,10.748c-0.925,0.922-1.589,1.586-2.08,2.078
		c-0.39-0.389-0.375-0.375-2.078-2.078l-1.348,1.346c0.691,0.689,1.39,1.385,2.083,2.074c-0.394,0.395-0.372,0.375-2.083,2.084
		l1.348,1.348c0.689-0.695,1.39-1.395,2.08-2.092c0.698,0.693,1.391,1.381,2.09,2.08l1.334-1.336
		c-0.928-0.928-1.595-1.594-2.086-2.086c0.692-0.695,1.377-1.385,2.074-2.084L16.253,10.748z M8.202,16.044
		c-0.616,0-1.115,0.499-1.115,1.115s0.499,1.115,1.115,1.115s1.115-0.499,1.115-1.115S8.819,16.044,8.202,16.044z M8.202,19.03
		c-0.616,0-1.115,0.499-1.115,1.115s0.499,1.115,1.115,1.115s1.115-0.499,1.115-1.115S8.819,19.03,8.202,19.03z M8.202,13.059
		c-0.616,0-1.115,0.498-1.115,1.115c0,0.615,0.499,1.115,1.115,1.115s1.115-0.5,1.115-1.115C9.318,13.557,8.819,13.059,8.202,13.059
		z M11.188,9.318c0.616,0,1.115-0.499,1.115-1.115s-0.499-1.115-1.115-1.115s-1.115,0.499-1.115,1.115S10.572,9.318,11.188,9.318z
		 M8.202,10.073c-0.616,0-1.115,0.499-1.115,1.115s0.499,1.115,1.115,1.115s1.115-0.499,1.115-1.115S8.819,10.073,8.202,10.073z
		 M20.145,9.318c0.616,0,1.115-0.499,1.115-1.115s-0.499-1.115-1.115-1.115S19.03,7.586,19.03,8.202S19.529,9.318,20.145,9.318z
		 M14.173,9.318c0.617,0,1.115-0.499,1.115-1.115s-0.498-1.115-1.115-1.115c-0.615,0-1.115,0.499-1.115,1.115
		S13.558,9.318,14.173,9.318z M17.159,7.087c-0.616,0-1.115,0.499-1.115,1.115s0.499,1.115,1.115,1.115s1.115-0.499,1.115-1.115
		S17.776,7.087,17.159,7.087z M20.145,16.044c-0.616,0-1.115,0.499-1.115,1.115s0.499,1.115,1.115,1.115s1.115-0.499,1.115-1.115
		S20.761,16.044,20.145,16.044z M20.145,19.03c-0.616,0-1.115,0.499-1.115,1.115s0.499,1.115,1.115,1.115s1.115-0.499,1.115-1.115
		S20.761,19.03,20.145,19.03z M20.145,13.059c-0.616,0-1.115,0.498-1.115,1.115c0,0.615,0.499,1.115,1.115,1.115
		s1.115-0.5,1.115-1.115C21.26,13.557,20.761,13.059,20.145,13.059z M8.202,7.087c-0.616,0-1.115,0.499-1.115,1.115
		s0.499,1.115,1.115,1.115s1.115-0.499,1.115-1.115S8.819,7.087,8.202,7.087z M20.145,10.073c-0.616,0-1.115,0.499-1.115,1.115
		s0.499,1.115,1.115,1.115s1.115-0.499,1.115-1.115S20.761,10.073,20.145,10.073z M11.188,19.03c-0.616,0-1.115,0.499-1.115,1.115
		s0.499,1.115,1.115,1.115s1.115-0.499,1.115-1.115S11.804,19.03,11.188,19.03z M17.159,19.03c-0.616,0-1.115,0.499-1.115,1.115
		s0.499,1.115,1.115,1.115s1.115-0.499,1.115-1.115S17.776,19.03,17.159,19.03z M14.173,19.03c-0.615,0-1.115,0.499-1.115,1.115
		s0.5,1.115,1.115,1.115c0.617,0,1.115-0.499,1.115-1.115S14.79,19.03,14.173,19.03z"/>
</g>
</svg>
